<?xml version="1.0" encoding="UTF-8"?>
<svg width="149px" height="30px" viewBox="0 0 149 30" version="1.1" xmlns="http://www.w3.org/2000/svg" xmlns:xlink="http://www.w3.org/1999/xlink">
    <title>D7A9D1BD-AC71-404B-AE72-0002F1B0E946@1x</title>
    <g id="Page-1" stroke="none" stroke-width="1" fill="none" fill-rule="evenodd">
        <g id="Home-page-FInal" transform="translate(-205.000000, -36.000000)" fill-rule="nonzero">
            <g id="Logo-Color" transform="translate(205.000000, 36.000000)">
                <g id="Equity-Holding-Copy" transform="translate(61.180266, 0.000000)" fill="#222B31">
                    <polygon id="Path" points="0 13.4695524 8.97298024 13.4695524 8.97298024 11.9370883 1.69377605 11.9370883 1.69377605 7.4203522 7.4405162 7.4203522 7.4405162 6.17018416 1.69377605 6.17018416 1.69377605 1.73410405 8.79150423 1.73410405 8.79150423 0.201640005 0 0.201640005"></polygon>
                    <path d="M17.3813685,13.6711924 L23.8943406,13.6711924 L23.8943406,12.1992203 C22.8659766,12.2597123 21.6561366,12.3000403 20.3454765,12.3605323 L20.3454765,12.3202043 C22.4223686,11.6951203 24.0758166,9.71904826 24.0758166,6.77510418 C24.0758166,2.66164807 21.1923646,0 17.3813685,0 C13.6308644,0 10.6869203,2.60115607 10.6869203,6.77510418 C10.6869203,11.0297083 13.6308644,13.6711924 17.3813685,13.6711924 Z M17.3813685,12.1387283 C14.6592284,12.1387283 12.3806963,10.0820003 12.3806963,6.77510418 C12.3806963,3.52870009 14.6592284,1.53246404 17.3813685,1.53246404 C20.1035085,1.53246404 22.3820406,3.52870009 22.3820406,6.77510418 C22.3820406,10.0820003 20.1035085,12.1387283 17.3813685,12.1387283 Z" id="Shape"></path>
                    <path d="M32.2220729,13.6711924 C35.690281,13.6711924 37.807501,11.6144643 37.807501,8.58986423 L37.807501,0.201640005 L36.275037,0.201640005 L36.275037,8.58986423 C36.275037,10.7675763 34.7829009,12.1387283 32.2825649,12.1387283 C29.7822288,12.1387283 28.2900928,10.7675763 28.2900928,8.58986423 L28.2900928,0.201640005 L26.5963167,0.201640005 L26.5963167,8.58986423 C26.5963167,11.6144643 28.7337008,13.6711924 32.2220729,13.6711924 Z" id="Path"></path>
                    <polygon id="Path" points="41.0135771 13.4695524 42.7073531 13.4695524 42.7073531 0.201640005 41.0135771 0.201640005"></polygon>
                    <polygon id="Path" points="49.2404893 13.4695524 50.9342654 13.4695524 50.9342654 1.71394005 55.3300175 1.71394005 55.3300175 0.201640005 44.8447372 0.201640005 44.8447372 1.71394005 49.2404893 1.71394005"></polygon>
                    <polygon id="Path" points="61.5405296 13.4695524 63.2343057 13.4695524 63.2343057 8.04543621 68.5777658 0.201640005 66.7226778 0.201640005 62.5285657 6.65412018 62.4882377 6.65412018 58.2941256 0.201640005 56.2172335 0.201640005 61.5405296 8.04543621"></polygon>
                    <polygon id="Path" points="0 29.6007528 1.69377605 29.6007528 1.69377605 23.3902406 9.84003226 23.3902406 9.84003226 29.6007528 11.5338083 29.6007528 11.5338083 16.3328404 9.84003226 16.3328404 9.84003226 21.9787606 1.69377605 21.9787606 1.69377605 16.3328404 0 16.3328404"></polygon>
                    <path d="M20.8495766,29.8023928 C24.6000807,29.8023928 27.5440247,27.1609087 27.5440247,22.9063046 C27.5440247,18.7323565 24.6000807,16.1312004 20.8495766,16.1312004 C17.0990725,16.1312004 14.1551284,18.7323565 14.1551284,22.9063046 C14.1551284,27.1609087 17.0990725,29.8023928 20.8495766,29.8023928 Z M20.8495766,28.2699288 C18.1274365,28.2699288 15.8489044,26.2132007 15.8489044,22.9063046 C15.8489044,19.6599005 18.1274365,17.6636645 20.8495766,17.6636645 C23.5717166,17.6636645 25.8502487,19.6599005 25.8502487,22.9063046 C25.8502487,26.2132007 23.5717166,28.2699288 20.8495766,28.2699288 Z" id="Shape"></path>
                    <polygon id="Path" points="30.1653448 29.6007528 38.835865 29.6007528 38.835865 28.0682887 31.8591208 28.0682887 31.8591208 16.3328404 30.1653448 16.3328404"></polygon>
                    <path d="M40.9732491,29.6007528 L46.2360532,29.6007528 C50.0672133,29.6007528 52.4264014,27.1004167 52.4264014,22.9466326 C52.4264014,18.8331765 49.9059013,16.3328404 45.8126092,16.3328404 L40.9732491,16.3328404 L40.9732491,29.6007528 Z M42.6670251,28.0682887 L42.6670251,17.8653045 L45.8529372,17.8653045 C48.8775373,17.8653045 50.7326254,19.7808845 50.7326254,22.9466326 C50.7326254,26.1728727 49.0186853,28.0682887 46.1957252,28.0682887 L42.6670251,28.0682887 Z" id="Shape"></path>
                    <polygon id="Path" points="55.1283775 29.6007528 56.8221535 29.6007528 56.8221535 16.3328404 55.1283775 16.3328404"></polygon>
                    <polygon id="Path" points="60.1290496 29.6007528 61.7421696 29.6007528 61.7421696 17.5628445 61.7824976 17.5628445 69.7069499 29.6007528 71.7031859 29.6007528 71.7031859 16.3328404 70.0900659 16.3328404 70.0900659 27.3423847 70.0497379 27.3423847 62.8511897 16.3328404 60.1290496 16.3328404"></polygon>
                    <path d="M80.8979702,29.8023928 C83.5394542,29.8023928 85.0114263,28.6530448 85.4147063,27.1407447 L85.4348703,27.1407447 C85.3945423,28.1086167 85.3340503,29.0563248 85.2735583,29.6007528 L86.8665143,29.6007528 L86.8665143,23.2289286 L80.5148541,23.2289286 L80.5148541,24.4790967 L85.1727383,24.4790967 L85.1727383,24.8622127 C85.1727383,26.8584487 83.5394542,28.3505848 80.8979702,28.3505848 C78.2363221,28.3505848 76.018282,26.3140207 76.018282,23.1079446 C76.018282,19.8010485 78.1959941,17.6636645 80.9987902,17.6636645 C83.3983062,17.6636645 85.1727383,18.9138325 85.1727383,21.0310526 C85.1727383,21.2326926 85.1727383,21.4746606 85.1525743,21.7367926 L86.7253663,21.7367926 C86.7455303,21.4141686 86.7455303,21.1117086 86.7455303,20.9503966 C86.7455303,17.9257965 84.3460142,16.1312004 80.9987902,16.1312004 C77.2281221,16.1312004 74.324506,18.9339965 74.324506,23.0877806 C74.324506,27.2012367 77.1273021,29.8023928 80.8979702,29.8023928 Z" id="Path"></path>
                </g>
                <g id="8X-Copy" transform="translate(0.000000, 0.012098)" fill="#D65811">
                    <path d="M11.7999731,29.9879016 C19.1195053,29.9879016 23.5999462,26.7052023 23.5999462,21.2931846 C23.5999462,17.6555989 21.2931846,15.0383116 17.7886813,14.3728996 L17.7886813,14.3285388 C20.6721334,13.7074876 22.313483,11.2676435 22.313483,8.25110902 C22.313483,3.06089528 18.3210109,0 11.7999731,0 C5.27893534,0 1.28646323,3.06089528 1.28646323,8.25110902 C1.28646323,11.2676435 2.92781288,13.7074876 5.81126495,14.3285388 L5.81126495,14.3728996 C2.26240086,15.0383116 0,17.6555989 0,21.2931846 C0,26.7052023 4.48044092,29.9879016 11.7999731,29.9879016 Z M11.7999731,12.9533539 C8.20674822,12.9533539 5.98870816,11.3120043 5.98870816,8.65035623 C5.98870816,5.85562576 8.20674822,4.12555451 11.7999731,4.12555451 C15.393198,4.12555451 17.6112381,5.85562576 17.6112381,8.65035623 C17.6112381,11.3120043 15.393198,12.9533539 11.7999731,12.9533539 Z M11.7999731,25.8623471 C7.71877941,25.8623471 5.14585294,23.9991934 5.14585294,21.0270198 C5.14585294,18.1879285 7.71877941,16.4578572 11.7999731,16.4578572 C15.8811668,16.4578572 18.4540933,18.1879285 18.4540933,21.0270198 C18.4540933,23.9991934 15.8811668,25.8623471 11.7999731,25.8623471 Z" id="Shape"></path>
                    <polygon id="Path" points="26.0841511 29.5886544 32.3833849 29.5886544 39.8359995 18.1879285 47.3773357 29.5886544 54.0314558 29.5886544 43.4735852 14.5947036 53.6765694 0.399247211 47.6435005 0.399247211 40.5014115 11.3563651 33.1375185 0.399247211 26.4390375 0.399247211 36.6863826 14.6390644"></polygon>
                </g>
            </g>
        </g>
    </g>
</svg>