<?xml version="1.0" encoding="UTF-8"?>
<svg width="299px" height="61px" viewBox="0 0 299 61" version="1.1" xmlns="http://www.w3.org/2000/svg" xmlns:xlink="http://www.w3.org/1999/xlink">
    <title>D7086142-BFC9-41AF-BFFF-9700C912F1EB@1x</title>
    <defs>
        <polygon id="path-1" points="0 0 30.921985 0 30.921985 37.2536821 0 37.2536821"></polygon>
        <polygon id="path-3" points="0 61 299 61 299 0 0 0"></polygon>
    </defs>
    <g id="Page-1" stroke="none" stroke-width="1" fill="none" fill-rule="evenodd">
        <g id="Home-page-FInal" transform="translate(-101.000000, -2181.000000)">
            <g id="Our-Services" transform="translate(0.000000, 1759.000000)">
                <g id="Content" transform="translate(101.000000, 415.000000)">
                    <g id="Group-85" transform="translate(0.000000, 7.000000)">
                        <path d="M152.872625,36.8653763 L155.481487,33.7772707 C159.36783,37.2916638 163.094333,39.0482407 168.258158,39.0482407 C173.263382,39.0482407 176.563645,36.3858029 176.563645,32.7121717 L176.563645,32.6055998 C176.563645,29.1451122 174.700083,27.174772 166.874736,25.5241473 C158.302849,23.6609985 154.363226,20.8919888 154.363226,14.7690635 L154.363226,14.6631112 C154.363226,8.80599594 159.527051,4.49293347 166.608336,4.49293347 C172.03918,4.49293347 175.924904,6.03698629 179.704687,9.0724256 L177.255665,12.3197694 C173.795562,9.49871305 170.334839,8.27375622 166.501776,8.27375622 C161.657012,8.27375622 158.56925,10.9355744 158.56925,14.2894901 L158.56925,14.3966816 C158.56925,17.9104551 160.485471,19.8801757 168.684398,21.6379919 C176.989265,23.4478547 180.822948,26.4826745 180.822948,32.1799319 L180.822948,32.2858842 C180.822948,38.6758588 175.498664,42.8290635 168.099557,42.8290635 C162.189812,42.8290635 157.344429,40.8587232 152.872625,36.8653763" id="Fill-1" fill="#ED1C24"></path>
                        <path d="M200.030207,25.3116851 C206.205732,25.3116851 210.251916,22.0104358 210.251916,17.1124672 L210.251916,17.0058954 C210.251916,11.6810198 206.259012,8.91262976 200.242708,8.91262976 L190.81958,8.91262976 L190.81958,25.3116851 L200.030207,25.3116851 Z M186.614176,5.02523514 L200.562388,5.02523514 C208.973815,5.02523514 214.510599,9.49877501 214.510599,16.8460376 L214.510599,16.9519898 C214.510599,24.9919695 207.802894,29.1451742 199.869747,29.1451742 L194.298888,29.1451742 C192.377091,29.1451742 190.81958,30.7028583 190.81958,32.6248695 L190.81958,42.2962661 L186.614176,42.2962661 L186.614176,5.02523514 Z" id="Fill-3" fill="#ED1C24"></path>
                        <path d="M219.328971,5.02535907 L244.199586,5.02535907 L244.199586,8.85884815 L223.534995,8.85884815 L223.534995,21.0867303 L241.803224,21.0867303 L241.803224,24.9202194 L227.053954,24.9202194 C225.110472,24.9202194 223.534995,26.495872 223.534995,28.4395693 L223.534995,38.4622814 L244.465366,38.4622814 L244.465366,42.29639 L219.328971,42.29639 L219.328971,5.02535907 Z" id="Fill-5" fill="#ED1C24"></path>
                        <path d="M247.584973,23.7675084 L247.584973,23.6609365 C247.584973,13.1183768 255.464839,4.38691925 266.431229,4.38691925 C273.192834,4.38691925 277.239018,6.78292737 280.96614,10.2967009 L278.090878,13.3848065 C274.949836,10.4032727 271.435833,8.27369426 266.378568,8.27369426 C258.126362,8.27369426 251.950836,14.9821453 251.950836,23.5549843 L251.950836,23.6609365 C251.950836,32.2864418 258.180261,39.0487984 266.378568,39.0487984 C271.489113,39.0487984 274.842656,37.0778385 278.409939,33.6706369 L281.178641,36.385741 C277.291678,40.3258019 273.032994,42.9349538 266.271389,42.9349538 C255.5175,42.9349538 247.584973,34.4693062 247.584973,23.7675084" id="Fill-7" fill="#ED1C24"></path>
                        <g id="Group-11" transform="translate(0.000000, 4.890471)">
                            <mask id="mask-2" fill="white">
                                <use xlink:href="#path-1"></use>
                            </mask>
                            <g id="Clip-10"></g>
                            <path d="M30.921985,37.2536821 L25.3089976,37.2536821 L11.6848025,18.4226816 L9.18497866,20.9234027 C7.70552899,22.4030168 6.37848494,23.3218893 4.79681198,23.6787811 L4.79681198,37.2536821 L-0.000247814015,37.2536821 L-0.000247814015,0 L4.79681198,0 L4.79681198,18.7293855 C5.25588745,18.7293855 6.02163275,17.9635551 6.02163275,17.9635551 L23.8295479,0 L29.9524127,0 L15.0532145,15.054515 L30.921985,37.2536821 Z" id="Fill-9" fill="#4B4A4B" mask="url(#mask-2)"></path>
                        </g>
                        <path d="M50.2273783,8.69279431 C42.0123437,8.69279431 35.9904631,15.2760853 35.9904631,23.4926521 C35.9904631,31.7600264 42.0111046,38.3426978 50.2267587,38.3426978 C58.4417933,38.3426978 64.4122525,31.7600264 64.4122525,23.4926521 C64.4122525,15.2760853 58.4424129,8.69279431 50.2273783,8.69279431 M50.2267587,42.8335866 C39.6128845,42.8335866 31.1426014,34.158513 31.1426014,23.4926521 C31.143221,12.8775988 39.613504,4.20190554 50.2273783,4.20190554 C60.8920544,4.20190554 69.2093123,12.8775988 69.2086928,23.4926521 C69.2086928,34.158513 60.8908153,42.8335866 50.2267587,42.8335866" id="Fill-12" fill="#4B4A4B"></path>
                        <path d="M106.660143,42.1480569 L106.660763,13.008707 L96.0468886,33.4215561 L94.6696623,33.4215561 C91.199027,33.4215561 89.3627251,30.7169853 87.5251842,27.2465841 L80.1273163,13.008707 L80.1260772,42.1480569 L75.329637,42.1480569 L75.3302565,4.89437481 L81.0454672,4.89437481 L92.3730459,26.1244815 C92.8321213,26.9919269 93.2403949,27.7057105 93.9553384,27.9101798 L105.743232,4.89437481 L111.457823,4.89437481 L111.457203,42.1480569 L106.660143,42.1480569 Z" id="Fill-14" fill="#4B4A4B"></path>
                        <path d="M140.39395,28.7485038 L133.50534,11.4999716 L126.61673,28.7485038 L140.39395,28.7485038 Z M127.228831,33.2393926 C125.647158,33.2393926 124.626783,34.2090726 123.861038,35.4340295 L121.156768,42.1703626 L116.002236,42.1703626 L131.158541,4.91668055 L135.90418,4.91668055 L151.007205,42.1703626 L145.853912,42.1703626 L143.149642,35.4340295 C142.383897,34.2090726 141.363522,33.2393926 139.781849,33.2393926 L127.228831,33.2393926 Z" id="Fill-16" fill="#4B4A4B"></path>
                        <polygon id="Fill-18" fill="#4B4A4B" points="6.06797398 55.0629558 3.81844225 55.0629558 3.81844225 60.9008634 2.46042145 60.9008634 2.46042145 55.0629558 0.210889727 55.0629558 0.210889727 53.8634027 6.06797398 53.8634027"></polygon>
                        <path d="M10.4878608,59.7411508 C10.8112581,59.7411508 11.0838535,59.6754728 11.3050276,59.5428776 C11.5268211,59.410902 11.7046277,59.2386521 11.8403058,59.0273672 C11.975984,58.8160823 12.0720119,58.5731976 12.1277701,58.2987131 C12.1841478,58.0248481 12.2120269,57.7423088 12.2120269,57.4517146 L12.2120269,53.8635886 L13.5700477,53.8635886 L13.5700477,57.4517146 C13.5700477,57.9337664 13.5118114,58.3866968 13.3965778,58.8092666 C13.2807248,59.2324561 13.099201,59.6023596 12.851387,59.9195967 C12.603573,60.2368339 12.2845125,60.4877735 11.8948249,60.6724154 C11.5051374,60.857677 11.039247,60.9506176 10.4977734,60.9506176 C9.93585512,60.9506176 9.45881314,60.8527202 9.0654084,60.6575449 C8.67262318,60.4629893 8.35356264,60.2058537 8.10946583,59.8848989 C7.86474949,59.5645637 7.68818201,59.1928014 7.57914384,58.769612 C7.47010567,58.3470422 7.41558659,57.907743 7.41558659,57.4517146 L7.41558659,53.8635886 L8.78351995,53.8635886 L8.78351995,57.4517146 C8.78351995,57.7491244 8.8107795,58.0347618 8.86715718,58.3086267 C8.92353487,58.5831112 9.01894327,58.8259959 9.15462144,59.0372809 C9.29029961,59.2491854 9.4668671,59.4189568 9.68494343,59.5478344 C9.90301977,59.676712 10.1706589,59.7411508 10.4878608,59.7411508" id="Fill-20" fill="#4B4A4B"></path>
                        <path d="M16.8895783,57.3426023 L18.6044513,57.3426023 C18.7295974,57.3426023 18.8473091,57.3128614 18.9557277,57.2533794 C19.0647659,57.1938974 19.1589352,57.1127293 19.2388552,57.0104947 C19.3175362,56.90826 19.3807287,56.7874373 19.4265743,56.648646 C19.4730395,56.5098547 19.4959622,56.3611498 19.4959622,56.2025312 C19.4959622,56.0377166 19.4699418,55.8852941 19.4166618,55.7465028 C19.3640013,55.6083311 19.2927548,55.4875084 19.2035417,55.3846541 C19.1143287,55.2824195 19.0121054,55.2031102 18.8962523,55.1473459 C18.7810188,55.0909619 18.6633072,55.0630797 18.5443564,55.0630797 L16.8895783,55.0630797 L16.8895783,57.3426023 Z M15.521645,60.9009873 L15.521645,53.8635267 L18.6335695,53.8635267 C18.9575863,53.8635267 19.2562022,53.9316831 19.5306562,54.0667567 C19.8051102,54.20245 20.0411531,54.3808959 20.2394043,54.6020945 C20.4376555,54.823293 20.5931588,55.0742326 20.7052946,55.3549132 C20.8174305,55.6362133 20.8738082,55.9187527 20.8738082,56.2025312 C20.8738082,56.6585597 20.7598137,57.0730747 20.5318248,57.4466958 C20.3038359,57.8203169 19.994688,58.089225 19.6050004,58.2546592 L21.2108352,60.9009873 L19.6743883,60.9009873 L18.2376866,58.5421554 L16.8895783,58.5421554 L16.8895783,60.9009873 L15.521645,60.9009873 Z" id="Fill-22" fill="#4B4A4B"></path>
                        <polygon id="Fill-24" fill="#4B4A4B" points="24.0547489 56.3910767 24.0547489 60.9005536 22.6868155 60.9005536 22.6868155 53.8637125 23.7474595 53.8637125 27.4144874 58.4822397 27.4144874 53.8736262 28.7818012 53.8736262 28.7818012 60.9005536 27.672214 60.9005536"></polygon>
                        <polygon id="Fill-26" fill="#4B4A4B" points="30.823355 60.9007395 30.823355 53.8731925 32.1912884 53.8731925 32.1912884 57.2134769 35.1446119 53.8638984 36.6507016 53.8638984 33.9551046 56.9854627 36.8192151 60.9007395 35.2833878 60.9007395 33.0927119 57.8578649 32.1912884 58.7996628 32.1912884 60.9007395"></polygon>
                        <polygon id="Fill-28" fill="#4B4A4B" points="42.9142628 59.7014962 42.9142628 60.9010493 38.0286095 60.9010493 38.0286095 53.8635886 42.8250497 53.8635886 42.8250497 55.0631417 39.3959233 55.0631417 39.3959233 56.7577583 42.3591594 56.7577583 42.3591594 57.8680884 39.3959233 57.8680884 39.3959233 59.7014962"></polygon>
                        <polygon id="Fill-30" fill="#4B4A4B" points="45.3521951 53.8636506 47.0862737 57.2535033 48.8507095 53.8636506 50.3270615 53.8636506 47.7702404 58.4425231 47.7702404 60.9004916 46.4128391 60.9004916 46.4128391 58.4226958 43.8659305 53.8636506"></polygon>
                        <path d="M54.2020053,57.3326267 C54.2020053,56.9032412 54.2794472,56.4788126 54.4343309,56.0587212 C54.5898342,55.639869 54.8165841,55.264389 55.1139609,54.9341402 C55.4107182,54.6038913 55.7743852,54.3362224 56.203723,54.1311336 C56.6330608,53.9266643 57.1218739,53.8238101 57.670782,53.8238101 C58.3181961,53.8238101 58.8776362,53.9663189 59.3503415,54.2500975 C59.8224272,54.5344957 60.1743231,54.9043992 60.4060292,55.3604276 L59.3552977,56.0835053 C59.2623675,55.8858517 59.1502317,55.7191783 59.0182707,55.583485 C58.8863097,55.4477918 58.7444362,55.3406003 58.5920306,55.261291 C58.4402445,55.1819817 58.2816435,55.1243586 58.1162277,55.0878019 C57.9514314,55.0512453 57.7897327,55.0332768 57.6311317,55.0332768 C57.2872898,55.0332768 56.9880544,55.1026724 56.734045,55.2414637 C56.4794161,55.380255 56.2681547,55.5599401 56.0996411,55.7817583 C55.9311276,56.0029568 55.8041229,56.2538964 55.7180075,56.5345769 C55.6325117,56.8158771 55.5891443,57.0946988 55.5891443,57.3722814 C55.5891443,57.6827029 55.6387071,57.9819716 55.7378327,58.2694678 C55.8369583,58.5569639 55.9775927,58.8091427 56.1591165,59.0272433 C56.3406403,59.2453438 56.5587166,59.4206917 56.8133455,59.5526673 C57.0673549,59.6852626 57.3467652,59.7509406 57.6503373,59.7509406 C57.8089383,59.7509406 57.9743542,59.7311133 58.1459654,59.6914586 C58.3181961,59.651804 58.4817533,59.589224 58.6366371,59.503099 C58.7921404,59.4175937 58.9358725,59.3066846 59.0678335,59.1709914 C59.1997945,59.0359177 59.3057349,58.8723423 59.3850354,58.6808847 L60.5045352,59.3246531 C60.3923994,59.589224 60.2319398,59.822195 60.0237761,60.0235663 C59.8162318,60.2249375 59.581428,60.3953286 59.3206038,60.5341199 C59.05916,60.6729111 58.7803692,60.7788634 58.4829924,60.851357 C58.1856156,60.9238507 57.8950537,60.9604073 57.6106871,60.9604073 C57.1088637,60.9604073 56.6497882,60.8544551 56.2334607,60.6431701 C55.8171331,60.4312656 55.4590419,60.1561615 55.1579479,59.8153794 C54.8574734,59.4752169 54.6232891,59.0885841 54.4547756,58.6561006 C54.2862621,58.2229975 54.2020053,57.7824591 54.2020053,57.3326267" id="Fill-32" fill="#4B4A4B"></path>
                        <path d="M62.9623546,57.382195 C62.9623546,57.6864205 63.0088198,57.9801127 63.1011305,58.2645109 C63.1934412,58.5482895 63.3272608,58.7998487 63.5025892,59.0173296 C63.6772981,59.2354302 63.8922767,59.4107781 64.1469056,59.5427537 C64.400915,59.6753489 64.6902379,59.7410269 65.0142547,59.7410269 C65.3438473,59.7410269 65.6362679,59.6734901 65.8908968,59.5377969 C66.1449061,59.4027232 66.3598848,59.2224185 66.5352132,58.9975023 C66.7099221,58.7732057 66.8425026,58.5204073 66.9317156,58.2397268 C67.0209287,57.9590462 67.0655352,57.6727892 67.0655352,57.382195 C67.0655352,57.0785891 67.0172115,56.7842773 66.9218031,56.4998791 C66.8257751,56.2161006 66.690097,55.9645414 66.5153881,55.7464408 C66.3400597,55.5289599 66.125081,55.3554708 65.8710717,55.2265932 C65.6164427,55.097096 65.3308371,55.0326572 65.0142547,55.0326572 C64.683423,55.0326572 64.3897634,55.1008136 64.1320368,55.2365069 C63.8743102,55.3715805 63.6593316,55.5500264 63.4877204,55.771225 C63.3154896,55.9930432 63.1853873,56.2439827 63.0961742,56.5246633 C63.0069612,56.8059634 62.9623546,57.0916008 62.9623546,57.382195 M65.0037226,60.9504937 C64.4882694,60.9504937 64.02114,60.8494982 63.6017148,60.648127 C63.1816701,60.4467557 62.8217202,60.1790868 62.5212457,59.8451204 C62.2207712,59.5117735 61.987826,59.1300975 61.8230297,58.7000924 C61.6576139,58.2713266 61.5752157,57.8314078 61.5752157,57.382195 C61.5752157,56.9131549 61.6625701,56.4639421 61.8378986,56.033937 C62.0126074,55.6045515 62.2536066,55.2247344 62.5608959,54.8944855 C62.8681853,54.5642367 63.2330915,54.3015246 63.6562339,54.1063494 C64.0787568,53.9111742 64.5378322,53.8138964 65.0334603,53.8138964 C65.5427181,53.8138964 66.0067498,53.9179898 66.426175,54.1261767 C66.8456003,54.3343636 67.2043111,54.6069893 67.5010683,54.9440538 C67.7984452,55.2804987 68.0301513,55.6640335 68.1949476,56.093419 C68.3597439,56.5234241 68.4427616,56.9590056 68.4427616,57.4020223 C68.4427616,57.8710625 68.3572658,58.3190361 68.185035,58.7447039 C68.0134238,59.1709914 67.7755224,59.5477105 67.4713307,59.8748614 C67.1677585,60.2020122 66.8040914,60.4628654 66.3815685,60.6580406 C65.9584261,60.8532158 65.4993506,60.9504937 65.0037226,60.9504937" id="Fill-34" fill="#4B4A4B"></path>
                        <polygon id="Fill-36" fill="#4B4A4B" points="71.4355495 56.3910767 71.4355495 60.9005536 70.0676161 60.9005536 70.0676161 53.8637125 71.1282601 53.8637125 74.795288 58.4822397 74.795288 53.8736262 76.1626018 53.8736262 76.1626018 60.9005536 75.0530146 60.9005536"></polygon>
                        <polygon id="Fill-38" fill="#4B4A4B" points="83.4665482 55.0629558 81.2170165 55.0629558 81.2170165 60.9008634 79.8589957 60.9008634 79.8589957 55.0629558 77.609464 55.0629558 77.609464 53.8634027 83.4665482 53.8634027"></polygon>
                        <path d="M86.2807861,57.3426023 L87.9956591,57.3426023 C88.1208052,57.3426023 88.2385168,57.3128614 88.3469355,57.2533794 C88.4559736,57.1938974 88.550143,57.1127293 88.630063,57.0104947 C88.7087439,56.90826 88.7719365,56.7874373 88.8177821,56.648646 C88.8642472,56.5098547 88.88717,56.3611498 88.88717,56.2025312 C88.88717,56.0377166 88.8611496,55.8852941 88.8078695,55.7465028 C88.7552091,55.6083311 88.6839625,55.4875084 88.5947495,55.3846541 C88.5055364,55.2824195 88.4033132,55.2031102 88.2874601,55.1473459 C88.1722266,55.0909619 88.0545149,55.0630797 87.9355642,55.0630797 L86.2807861,55.0630797 L86.2807861,57.3426023 Z M84.9128528,60.9009873 L84.9128528,53.8635267 L88.0247773,53.8635267 C88.3487941,53.8635267 88.64741,53.9316831 88.921864,54.0667567 C89.196318,54.20245 89.4323609,54.3808959 89.6306121,54.6020945 C89.8288633,54.823293 89.9843666,55.0742326 90.0965024,55.3549132 C90.2086383,55.6362133 90.265016,55.9187527 90.265016,56.2025312 C90.265016,56.6585597 90.1510215,57.0730747 89.9230326,57.4466958 C89.6950437,57.8203169 89.3858957,58.089225 88.9962082,58.2546592 L90.602043,60.9009873 L89.0655961,60.9009873 L87.6288944,58.5421554 L86.2807861,58.5421554 L86.2807861,60.9009873 L84.9128528,60.9009873 Z" id="Fill-40" fill="#4B4A4B"></path>
                        <path d="M95.6563957,58.1848299 L94.6849648,55.4195378 L93.6745031,58.1848299 L95.6563957,58.1848299 Z M94.0809181,53.8637125 L95.289631,53.8637125 L97.9654028,60.9005536 L96.5584387,60.9005536 L95.9042097,59.1464551 L93.4465142,59.1464551 L92.8021978,60.9005536 L91.3952337,60.9005536 L94.0809181,53.8637125 Z" id="Fill-42" fill="#4B4A4B"></path>
                        <path d="M98.887209,57.3326267 C98.887209,56.9032412 98.9646509,56.4788126 99.1195346,56.0587212 C99.2750379,55.639869 99.5017877,55.264389 99.7991646,54.9341402 C100.095922,54.6038913 100.459589,54.3362224 100.888927,54.1311336 C101.318264,53.9266643 101.807078,53.8238101 102.355986,53.8238101 C103.0034,53.8238101 103.56284,53.9663189 104.035545,54.2500975 C104.507631,54.5344957 104.859527,54.9043992 105.091233,55.3604276 L104.040501,56.0835053 C103.947571,55.8858517 103.835435,55.7191783 103.703474,55.583485 C103.571513,55.4477918 103.42964,55.3406003 103.277234,55.261291 C103.125448,55.1819817 102.966847,55.1243586 102.801431,55.0878019 C102.636635,55.0512453 102.474936,55.0332768 102.316335,55.0332768 C101.972493,55.0332768 101.673258,55.1026724 101.419249,55.2414637 C101.16462,55.380255 100.953358,55.5599401 100.784845,55.7817583 C100.616331,56.0029568 100.489327,56.2538964 100.403211,56.5345769 C100.317715,56.8158771 100.274348,57.0946988 100.274348,57.3722814 C100.274348,57.6827029 100.323911,57.9819716 100.423036,58.2694678 C100.522162,58.5569639 100.662796,58.8091427 100.84432,59.0272433 C101.025844,59.2453438 101.24392,59.4206917 101.498549,59.5526673 C101.752559,59.6852626 102.031969,59.7509406 102.335541,59.7509406 C102.494142,59.7509406 102.659558,59.7311133 102.831169,59.6914586 C103.0034,59.651804 103.166957,59.589224 103.321841,59.503099 C103.477344,59.4175937 103.621076,59.3066846 103.753037,59.1709914 C103.884998,59.0359177 103.990939,58.8723423 104.070239,58.6808847 L105.189739,59.3246531 C105.077603,59.589224 104.917144,59.822195 104.70898,60.0235663 C104.501435,60.2249375 104.266632,60.3953286 104.005807,60.5341199 C103.744364,60.6729111 103.465573,60.7788634 103.168196,60.851357 C102.870819,60.9238507 102.580257,60.9604073 102.295891,60.9604073 C101.794067,60.9604073 101.334992,60.8544551 100.918664,60.6431701 C100.502337,60.4312656 100.144246,60.1561615 99.8431515,59.8153794 C99.5426771,59.4752169 99.3084928,59.0885841 99.1399793,58.6561006 C98.9714657,58.2229975 98.887209,57.7824591 98.887209,57.3326267" id="Fill-44" fill="#4B4A4B"></path>
                        <polygon id="Fill-46" fill="#4B4A4B" points="111.948556 55.0629558 109.699025 55.0629558 109.699025 60.9008634 108.341004 60.9008634 108.341004 55.0629558 106.091472 55.0629558 106.091472 53.8634027 111.948556 53.8634027"></polygon>
                        <polygon id="Fill-48" fill="#4B4A4B" points="122.086504 60.9007395 122.086504 56.241938 120.273125 59.7117197 119.529683 59.7117197 117.715684 56.241938 117.715684 60.9007395 116.34837 60.9007395 116.34837 53.8638984 117.81481 53.8638984 119.896448 57.8677786 121.997291 53.8638984 123.454437 53.8638984 123.454437 60.9007395"></polygon>
                        <path d="M129.073186,58.1848299 L128.101755,55.4195378 L127.091294,58.1848299 L129.073186,58.1848299 Z M127.497709,53.8637125 L128.706422,53.8637125 L131.382193,60.9005536 L129.975229,60.9005536 L129.321,59.1464551 L126.863305,59.1464551 L126.218988,60.9005536 L124.812024,60.9005536 L127.497709,53.8637125 Z" id="Fill-50" fill="#4B4A4B"></path>
                        <polygon id="Fill-52" fill="#4B4A4B" points="134.097554 56.3910767 134.097554 60.9005536 132.72962 60.9005536 132.72962 53.8637125 133.790264 53.8637125 137.457292 58.4822397 137.457292 53.8736262 138.824606 53.8736262 138.824606 60.9005536 137.715019 60.9005536"></polygon>
                        <path d="M143.839494,59.7411508 C144.162892,59.7411508 144.435487,59.6754728 144.656661,59.5428776 C144.878454,59.410902 145.056261,59.2386521 145.191939,59.0273672 C145.327617,58.8160823 145.423645,58.5731976 145.479403,58.2987131 C145.535781,58.0248481 145.56366,57.7423088 145.56366,57.4517146 L145.56366,53.8635886 L146.921681,53.8635886 L146.921681,57.4517146 C146.921681,57.9337664 146.863445,58.3866968 146.748211,58.8092666 C146.632358,59.2324561 146.450834,59.6023596 146.20302,59.9195967 C145.955206,60.2368339 145.636146,60.4877735 145.246458,60.6724154 C144.856771,60.857677 144.39088,60.9506176 143.849407,60.9506176 C143.287489,60.9506176 142.810447,60.8527202 142.417042,60.6575449 C142.024257,60.4629893 141.705196,60.2058537 141.461099,59.8848989 C141.216383,59.5645637 141.039815,59.1928014 140.930777,58.769612 C140.821739,58.3470422 140.76722,57.907743 140.76722,57.4517146 L140.76722,53.8635886 L142.135153,53.8635886 L142.135153,57.4517146 C142.135153,57.7491244 142.162413,58.0347618 142.218791,58.3086267 C142.275168,58.5831112 142.370577,58.8259959 142.506255,59.0372809 C142.641933,59.2491854 142.8185,59.4189568 143.036577,59.5478344 C143.254653,59.676712 143.522292,59.7411508 143.839494,59.7411508" id="Fill-54" fill="#4B4A4B"></path>
                        <polygon id="Fill-56" fill="#4B4A4B" points="148.874084 60.9007395 148.874084 53.8638984 153.601136 53.8638984 153.601136 55.0628319 150.242017 55.0628319 150.242017 56.8764124 153.03674 56.8764124 153.03674 57.9867425 150.242017 57.9867425 150.242017 60.9007395"></polygon>
                        <path d="M158.714964,58.1848299 L157.743533,55.4195378 L156.733072,58.1848299 L158.714964,58.1848299 Z M157.139487,53.8637125 L158.348199,53.8637125 L161.023971,60.9005536 L159.617007,60.9005536 L158.962778,59.1464551 L156.505083,59.1464551 L155.860766,60.9005536 L154.453802,60.9005536 L157.139487,53.8637125 Z" id="Fill-58" fill="#4B4A4B"></path>
                        <path d="M161.945777,57.3326267 C161.945777,56.9032412 162.023219,56.4788126 162.178103,56.0587212 C162.333606,55.639869 162.560356,55.264389 162.857733,54.9341402 C163.15449,54.6038913 163.518157,54.3362224 163.947495,54.1311336 C164.376833,53.9266643 164.865646,53.8238101 165.414554,53.8238101 C166.061968,53.8238101 166.621408,53.9663189 167.094114,54.2500975 C167.566199,54.5344957 167.918095,54.9043992 168.149801,55.3604276 L167.09907,56.0835053 C167.00614,55.8858517 166.894004,55.7191783 166.762043,55.583485 C166.630082,55.4477918 166.488208,55.3406003 166.335803,55.261291 C166.184017,55.1819817 166.025416,55.1243586 165.86,55.0878019 C165.695203,55.0512453 165.533505,55.0332768 165.374904,55.0332768 C165.031062,55.0332768 164.731826,55.1026724 164.477817,55.2414637 C164.223188,55.380255 164.011927,55.5599401 163.843413,55.7817583 C163.6749,56.0029568 163.547895,56.2538964 163.46178,56.5345769 C163.376284,56.8158771 163.332916,57.0946988 163.332916,57.3722814 C163.332916,57.6827029 163.382479,57.9819716 163.481605,58.2694678 C163.58073,58.5569639 163.721365,58.8091427 163.902889,59.0272433 C164.084412,59.2453438 164.302489,59.4206917 164.557118,59.5526673 C164.811127,59.6852626 165.090537,59.7509406 165.394109,59.7509406 C165.55271,59.7509406 165.718126,59.7311133 165.889737,59.6914586 C166.061968,59.651804 166.225525,59.589224 166.380409,59.503099 C166.535913,59.4175937 166.679645,59.3066846 166.811606,59.1709914 C166.943567,59.0359177 167.049507,58.8723423 167.128808,58.6808847 L168.248307,59.3246531 C168.136172,59.589224 167.975712,59.822195 167.767548,60.0235663 C167.560004,60.2249375 167.3252,60.3953286 167.064376,60.5341199 C166.802932,60.6729111 166.524141,60.7788634 166.226765,60.851357 C165.929388,60.9238507 165.638826,60.9604073 165.354459,60.9604073 C164.852636,60.9604073 164.39356,60.8544551 163.977233,60.6431701 C163.560905,60.4312656 163.202814,60.1561615 162.90172,59.8153794 C162.601245,59.4752169 162.367061,59.0885841 162.198548,58.6561006 C162.030034,58.2229975 161.945777,57.7824591 161.945777,57.3326267" id="Fill-60" fill="#4B4A4B"></path>
                        <polygon id="Fill-62" fill="#4B4A4B" points="175.006815 55.0629558 172.757903 55.0629558 172.757903 60.9008634 171.399882 60.9008634 171.399882 55.0629558 169.15035 55.0629558 169.15035 53.8634027 175.006815 53.8634027"></polygon>
                        <path d="M179.427074,59.7411508 C179.750471,59.7411508 180.023686,59.6754728 180.24486,59.5428776 C180.466034,59.410902 180.64446,59.2386521 180.780138,59.0273672 C180.915197,58.8160823 181.011225,58.5731976 181.066983,58.2987131 C181.123361,58.0248481 181.15124,57.7423088 181.15124,57.4517146 L181.15124,53.8635886 L182.50988,53.8635886 L182.50988,57.4517146 C182.50988,57.9337664 182.451644,58.3866968 182.335791,58.8092666 C182.220557,59.2324561 182.038414,59.6023596 181.7906,59.9195967 C181.542786,60.2368339 181.223725,60.4877735 180.834038,60.6724154 C180.44497,60.857677 179.979079,60.9506176 179.437606,60.9506176 C178.875068,60.9506176 178.398026,60.8527202 178.005241,60.6575449 C177.611836,60.4629893 177.293395,60.2058537 177.048679,59.8848989 C176.804582,59.5645637 176.627395,59.1928014 176.518976,58.769612 C176.409319,58.3470422 176.354799,57.907743 176.354799,57.4517146 L176.354799,53.8635886 L177.722733,53.8635886 L177.722733,57.4517146 C177.722733,57.7491244 177.750612,58.0347618 177.80699,58.3086267 C177.863367,58.5831112 177.958776,58.8259959 178.094454,59.0372809 C178.229512,59.2491854 178.406699,59.4189568 178.624156,59.5478344 C178.842852,59.676712 179.109872,59.7411508 179.427074,59.7411508" id="Fill-64" fill="#4B4A4B"></path>
                        <path d="M185.829287,57.3426023 L187.54354,57.3426023 C187.669306,57.3426023 187.786398,57.3128614 187.895436,57.2533794 C188.004474,57.1938974 188.098644,57.1127293 188.177944,57.0104947 C188.257245,56.90826 188.319818,56.7874373 188.366283,56.648646 C188.412128,56.5098547 188.435671,56.3611498 188.435671,56.2025312 C188.435671,56.0377166 188.409031,55.8852941 188.35637,55.7465028 C188.30309,55.6083311 188.232463,55.4875084 188.142631,55.3846541 C188.054037,55.2824195 187.951814,55.2031102 187.835961,55.1473459 C187.720108,55.0909619 187.603016,55.0630797 187.484065,55.0630797 L185.829287,55.0630797 L185.829287,57.3426023 Z M184.461353,60.9009873 L184.461353,53.8635267 L187.573278,53.8635267 C187.896675,53.8635267 188.195911,53.9316831 188.470365,54.0667567 C188.744199,54.20245 188.980862,54.3808959 189.178493,54.6020945 C189.377364,54.823293 189.532248,55.0742326 189.644384,55.3549132 C189.757139,55.6362133 189.813517,55.9187527 189.813517,56.2025312 C189.813517,56.6585597 189.698903,57.0730747 189.470914,57.4466958 C189.243544,57.8203169 188.934396,58.089225 188.544709,58.2546592 L190.149924,60.9009873 L188.614097,60.9009873 L187.176776,58.5421554 L185.829287,58.5421554 L185.829287,60.9009873 L184.461353,60.9009873 Z" id="Fill-66" fill="#4B4A4B"></path>
                        <mask id="mask-4" fill="white">
                            <use xlink:href="#path-3"></use>
                        </mask>
                        <g id="Clip-69"></g>
                        <polygon id="Fill-68" fill="#4B4A4B" mask="url(#mask-4)" points="191.626524 60.9002438 192.994457 60.9002438 192.994457 53.8634027 191.626524 53.8634027"></polygon>
                        <polygon id="Fill-70" fill="#4B4A4B" mask="url(#mask-4)" points="196.403759 56.3910767 196.403759 60.9005536 195.035825 60.9005536 195.035825 53.8637125 196.096469 53.8637125 199.763497 58.4822397 199.763497 53.8736262 201.130811 53.8736262 201.130811 60.9005536 200.020604 60.9005536"></polygon>
                        <path d="M208.058142,60.1078324 C207.496224,60.6698131 206.841995,60.9504937 206.095455,60.9504937 C205.633282,60.9504937 205.198988,60.8575531 204.792573,60.6729111 C204.386158,60.4876496 204.032403,60.233612 203.732548,59.9095592 C203.431454,59.586126 203.192933,59.20445 203.018224,58.7651508 C202.843516,58.3258517 202.755542,57.8512351 202.755542,57.3425404 C202.755542,56.8604886 202.843516,56.4056993 203.018224,55.9794119 C203.192933,55.5531244 203.434552,55.1801229 203.741841,54.8597877 C204.049131,54.5394525 204.410939,54.2847953 204.827267,54.0964358 C205.243594,53.9080762 205.695855,53.8138964 206.185288,53.8138964 C206.845712,53.8138964 207.411967,53.9526877 207.884672,54.2302702 C208.356758,54.5078527 208.712371,54.8808542 208.949653,55.350514 L207.929279,56.1039523 C207.750853,55.7532565 207.5018,55.4862072 207.18088,55.3009457 C206.859961,55.1156841 206.511783,55.0233631 206.135105,55.0233631 C205.837728,55.0233631 205.565753,55.0865627 205.317319,55.2117227 C205.070125,55.3368827 204.858244,55.5091326 204.683535,55.7272331 C204.508826,55.9447141 204.373148,56.1962732 204.27712,56.4806714 C204.181092,56.76445 204.133388,57.0649578 204.133388,57.382195 C204.133388,57.7124439 204.186048,58.0216262 204.291989,58.3091224 C204.397929,58.5966186 204.5429,58.8456993 204.728141,59.0569843 C204.912763,59.2688888 205.132698,59.4355622 205.386707,59.5576242 C205.641336,59.6803057 205.917648,59.7410269 206.214406,59.7410269 C206.895275,59.7410269 207.509234,59.4206917 208.058142,58.7794017 L208.058142,58.2843382 L206.640646,58.2843382 L206.640646,57.2830584 L209.187554,57.2830584 L209.187554,60.9009253 L208.058142,60.9009253 L208.058142,60.1078324 Z" id="Fill-71" fill="#4B4A4B" mask="url(#mask-4)"></path>
                        <path d="M215.222755,55.4196618 C215.222755,55.4791437 215.233287,55.5367669 215.253112,55.5931508 C215.272318,55.6495348 215.305773,55.710256 215.351618,55.7765536 C215.398083,55.8428512 215.459417,55.9184429 215.535001,56.0045678 C215.611203,56.0906927 215.70847,56.1960254 215.828041,56.321805 C216.078952,56.1501747 216.269769,55.9896973 216.40235,55.8409924 C216.534311,55.6922875 216.600601,55.528712 216.600601,55.3502661 C216.600601,55.1718202 216.539267,55.0280721 216.417219,54.9190218 C216.294551,54.8099716 216.138428,54.7554464 215.946372,54.7554464 C215.73511,54.7554464 215.561641,54.8198852 215.425962,54.9487628 C215.290284,55.0776404 215.222755,55.2350198 215.222755,55.4196618 L215.222755,55.4196618 Z M216.05541,59.9594992 C216.464923,59.9594992 216.844698,59.823806 217.195355,59.5530391 L215.570314,57.8379756 C215.338608,58.0034099 215.157084,58.1719421 215.025123,58.3435724 C214.892543,58.5158222 214.826253,58.7072798 214.826253,58.9185648 C214.826253,59.057356 214.85599,59.1911905 214.916085,59.3200681 C214.97556,59.4489457 215.059198,59.5598547 215.168236,59.6521757 C215.277894,59.7444967 215.407996,59.8188492 215.559782,59.8746135 C215.712188,59.9309975 215.877603,59.9594992 216.05541,59.9594992 L216.05541,59.9594992 Z M218.463543,60.9006775 L217.909059,60.3157715 C217.617877,60.5406877 217.303773,60.7110787 216.966746,60.826325 C216.630339,60.942191 216.283399,60.9998141 215.926547,60.9998141 C215.563499,60.9998141 215.234526,60.9440498 214.940867,60.8312819 C214.646587,60.7191336 214.396915,60.5673306 214.192468,60.375873 C213.987402,60.1837958 213.828801,59.9607384 213.716665,59.7060813 C213.604529,59.4520437 213.548152,59.1862336 213.548152,58.9086511 C213.548152,58.6905505 213.581607,58.4891793 213.647277,58.3039177 C213.712948,58.1186562 213.80402,57.9488847 213.919253,57.7933641 C214.035106,57.6384632 214.167687,57.4947151 214.316375,57.3621199 C214.464444,57.2301442 214.621806,57.1080823 214.787222,56.9953144 C214.502855,56.6786968 214.303365,56.4060711 214.187512,56.1780569 C214.072278,55.9500427 214.014042,55.710256 214.014042,55.4593164 C214.014042,55.2083768 214.063605,54.9785038 214.162731,54.7703169 C214.261856,54.56213 214.396915,54.3843037 214.568526,54.2349792 C214.740757,54.0868939 214.943964,53.9728867 215.178768,53.8935775 C215.412952,53.8142682 215.66944,53.7746135 215.946372,53.7746135 C216.190469,53.7746135 216.425272,53.8074525 216.650164,53.8731305 C216.874435,53.9394281 217.072687,54.0373255 217.244917,54.1662031 C217.416529,54.2950808 217.555304,54.4567974 217.661245,54.651353 C217.766566,54.8465282 217.819226,55.0726836 217.819226,55.3304388 C217.819226,55.7139736 217.70709,56.0491793 217.482199,56.3366755 C217.257928,56.6241717 216.970463,56.8930797 216.620426,57.1446389 L217.968534,58.5517593 C218.06766,58.3404744 218.145102,58.1093621 218.201479,57.8578029 C218.256618,57.6068634 218.285117,57.3360965 218.285117,57.0455023 L219.365586,57.0455023 C219.358771,57.5145424 219.303013,57.9408299 219.197072,58.323745 C219.091132,58.7072798 218.942443,59.057356 218.751007,59.3745932 L220.208153,60.9006775 L218.463543,60.9006775 Z" id="Fill-72" fill="#4B4A4B" mask="url(#mask-4)"></path>
                        <path d="M228.046635,58.1848299 L227.075823,55.4195378 L226.064742,58.1848299 L228.046635,58.1848299 Z M226.471157,53.8637125 L227.67987,53.8637125 L230.356261,60.9005536 L228.948678,60.9005536 L228.294449,59.1464551 L225.837373,59.1464551 L225.193056,60.9005536 L223.785473,60.9005536 L226.471157,53.8637125 Z" id="Fill-73" fill="#4B4A4B" mask="url(#mask-4)"></path>
                        <path d="M235.896082,55.707034 C235.850236,55.6611833 235.76536,55.5979837 235.643311,55.5186745 C235.521263,55.4393652 235.371955,55.3619147 235.197246,55.2857034 C235.022537,55.2101117 234.83234,55.1456729 234.627274,55.092387 C234.422827,55.0397207 234.214664,55.0130777 234.002783,55.0130777 C233.626725,55.0130777 233.346075,55.0824733 233.160834,55.2212646 C232.975593,55.3600559 232.883283,55.5552311 232.883283,55.8061706 C232.883283,55.9517776 232.917977,56.0719807 232.987365,56.1680193 C233.056753,56.2634383 233.157117,56.348324 233.289698,56.4208177 C233.421659,56.4939309 233.588314,56.5596089 233.790282,56.6190909 C233.991631,56.6785729 234.224576,56.7411529 234.489118,56.8074505 C234.83234,56.8997715 235.144586,56.9989081 235.425235,57.1048603 C235.705884,57.210193 235.943786,57.3427882 236.138939,57.5014068 C236.333473,57.6594058 236.48402,57.8496242 236.589961,58.0708228 C236.695282,58.2926409 236.748562,58.5652666 236.748562,58.8886998 C236.748562,59.265419 236.677315,59.587613 236.535442,59.8552819 C236.393568,60.1223311 236.201512,60.3391925 235.960513,60.5046267 C235.719514,60.6694413 235.441962,60.7902641 235.128478,60.8658558 C234.814373,60.942067 234.4854,60.9798629 234.142178,60.9798629 C233.613095,60.9798629 233.091446,60.9005536 232.576613,60.741935 C232.06116,60.583936 231.598367,60.3590198 231.188235,60.0684256 L231.793521,58.8886998 C231.852996,58.9481818 231.959556,59.0256323 232.115059,59.1216709 C232.269943,59.2177095 232.453325,59.3131285 232.665206,59.4091671 C232.876468,59.5045861 233.111272,59.5857542 233.368998,59.6520518 C233.626725,59.7183494 233.891266,59.7511884 234.161383,59.7511884 C234.914738,59.7511884 235.291415,59.5101625 235.291415,59.0274911 C235.291415,58.8756882 235.248667,58.7468106 235.162552,58.6408583 C235.077056,58.534906 234.954388,58.4425851 234.796407,58.3632758 C234.637806,58.2839665 234.44575,58.2114728 234.221478,58.1451752 C233.996587,58.0794972 233.745056,58.006384 233.468124,57.9270747 C233.131097,57.8347537 232.838676,57.7337583 232.590862,57.624708 C232.343668,57.5156577 232.136743,57.3867801 231.971327,57.2386948 C231.805911,57.0893702 231.682624,56.9183596 231.599606,56.7231844 C231.517208,56.5280091 231.475699,56.2950381 231.475699,56.0242712 C231.475699,55.6673794 231.541989,55.3501422 231.67457,55.0731793 C231.805911,54.7949771 231.989294,54.5638649 232.224097,54.3786034 C232.458901,54.1939614 232.731497,54.0539309 233.041884,53.9578923 C233.35289,53.8618537 233.6862,53.8141442 234.043052,53.8141442 C234.53868,53.8141442 234.994039,53.8915947 235.410366,54.0471153 C235.826694,54.2020163 236.190361,54.385419 236.500748,54.5967039 L235.896082,55.707034 Z" id="Fill-74" fill="#4B4A4B" mask="url(#mask-4)"></path>
                        <path d="M242.545799,55.707034 C242.499953,55.6611833 242.415077,55.5979837 242.293029,55.5186745 C242.17098,55.4393652 242.021672,55.3619147 241.846963,55.2857034 C241.672255,55.2101117 241.482057,55.1456729 241.276991,55.092387 C241.072545,55.0397207 240.864381,55.0130777 240.6525,55.0130777 C240.276442,55.0130777 239.995793,55.0824733 239.810552,55.2212646 C239.625311,55.3600559 239.533,55.5552311 239.533,55.8061706 C239.533,55.9517776 239.567694,56.0719807 239.637082,56.1680193 C239.70647,56.2634383 239.806835,56.348324 239.939415,56.4208177 C240.071376,56.4939309 240.238031,56.5596089 240.439999,56.6190909 C240.641348,56.6785729 240.874293,56.7411529 241.138835,56.8074505 C241.482057,56.8997715 241.794303,56.9989081 242.074952,57.1048603 C242.355602,57.210193 242.593503,57.3427882 242.788657,57.5014068 C242.983191,57.6594058 243.133738,57.8496242 243.239678,58.0708228 C243.344999,58.2926409 243.398279,58.5652666 243.398279,58.8886998 C243.398279,59.265419 243.327033,59.587613 243.185159,59.8552819 C243.043286,60.1223311 242.85123,60.3391925 242.610231,60.5046267 C242.369231,60.6694413 242.09168,60.7902641 241.778195,60.8658558 C241.464091,60.942067 241.135118,60.9798629 240.791895,60.9798629 C240.262812,60.9798629 239.741164,60.9005536 239.22633,60.741935 C238.710877,60.583936 238.248084,60.3590198 237.837952,60.0684256 L238.443238,58.8886998 C238.502713,58.9481818 238.609273,59.0256323 238.764777,59.1216709 C238.91966,59.2177095 239.103043,59.3131285 239.314924,59.4091671 C239.526185,59.5045861 239.760989,59.5857542 240.018716,59.6520518 C240.276442,59.7183494 240.540984,59.7511884 240.811101,59.7511884 C241.564455,59.7511884 241.941133,59.5101625 241.941133,59.0274911 C241.941133,58.8756882 241.898385,58.7468106 241.812269,58.6408583 C241.726774,58.534906 241.604106,58.4425851 241.446124,58.3632758 C241.287523,58.2839665 241.095467,58.2114728 240.871196,58.1451752 C240.646305,58.0794972 240.394773,58.006384 240.117841,57.9270747 C239.780814,57.8347537 239.488394,57.7337583 239.24058,57.624708 C238.993385,57.5156577 238.78646,57.3867801 238.621045,57.2386948 C238.455629,57.0893702 238.332341,56.9183596 238.249323,56.7231844 C238.166925,56.5280091 238.125416,56.2950381 238.125416,56.0242712 C238.125416,55.6673794 238.191707,55.3501422 238.324287,55.0731793 C238.455629,54.7949771 238.639011,54.5638649 238.873815,54.3786034 C239.108619,54.1939614 239.381214,54.0539309 239.691601,53.9578923 C240.002608,53.8618537 240.335917,53.8141442 240.69277,53.8141442 C241.188398,53.8141442 241.643756,53.8915947 242.060084,54.0471153 C242.476411,54.2020163 242.840078,54.385419 243.150465,54.5967039 L242.545799,55.707034 Z" id="Fill-75" fill="#4B4A4B" mask="url(#mask-4)"></path>
                        <polygon id="Fill-76" fill="#4B4A4B" mask="url(#mask-4)" points="249.889458 59.7014962 249.889458 60.9010493 245.003185 60.9010493 245.003185 53.8635886 249.799625 53.8635886 249.799625 55.0631417 246.371118 55.0631417 246.371118 56.7577583 249.334354 56.7577583 249.334354 57.8680884 246.371118 57.8680884 246.371118 59.7014962"></polygon>
                        <polygon id="Fill-77" fill="#4B4A4B" mask="url(#mask-4)" points="257.272457 60.9007395 257.272457 56.241938 255.459078 59.7117197 254.715635 59.7117197 252.902256 56.241938 252.902256 60.9007395 251.534323 60.9007395 251.534323 53.8638984 253.000763 53.8638984 255.0824 57.8677786 257.183244 53.8638984 258.64039 53.8638984 258.64039 60.9007395"></polygon>
                        <path d="M264.973091,58.8292798 C264.973091,58.7035003 264.951408,58.5832971 264.90866,58.4674312 C264.865292,58.3515653 264.807675,58.2511894 264.73519,58.1650645 C264.662085,58.0795592 264.576589,58.0114027 264.477463,57.9618344 C264.378338,57.9128857 264.269299,57.887482 264.150349,57.887482 L262.049505,57.887482 L262.049505,59.7413367 L264.08158,59.7413367 C264.206726,59.7413367 264.323819,59.7184114 264.432857,59.6719411 C264.541895,59.6254708 264.636064,59.561032 264.715365,59.4786247 C264.794665,59.3962174 264.857238,59.29832 264.903703,59.1861717 C264.949549,59.0740234 264.973091,58.9550594 264.973091,58.8292798 L264.973091,58.8292798 Z M262.049505,55.032967 L262.049505,56.8075124 L263.873417,56.8075124 C264.104503,56.8075124 264.300896,56.7282031 264.462594,56.5695846 C264.624913,56.410966 264.705452,56.1928654 264.705452,55.9152829 C264.705452,55.644516 264.631108,55.4295135 264.48242,55.2708949 C264.333731,55.1122763 264.150349,55.032967 263.932272,55.032967 L262.049505,55.032967 Z M266.350937,59.087035 C266.350937,59.3844449 266.290842,59.6452981 266.172511,59.8702143 C266.052941,60.0945109 265.889384,60.2828705 265.681839,60.4346734 C265.473676,60.587096 265.232057,60.7023423 264.958222,60.7816516 C264.683768,60.8609609 264.391967,60.9006155 264.08158,60.9006155 L260.681572,60.9006155 L260.681572,53.8637745 L264.447726,53.8637745 C264.692442,53.8637745 264.913616,53.9164408 265.111867,54.0223931 C265.310118,54.1277257 265.478012,54.2646582 265.617408,54.4331905 C265.756184,54.6017227 265.863363,54.7937999 265.939566,55.0081828 C266.015149,55.2231854 266.052941,55.4394271 266.052941,55.6575277 C266.052941,56.0014078 265.966825,56.3236018 265.795214,56.6241097 C265.623603,56.9246176 265.372691,57.147675 265.042479,57.2932819 C265.445177,57.4116262 265.763618,57.6247699 265.998422,57.9320934 C266.233226,58.239417 266.350937,58.624191 266.350937,59.087035 L266.350937,59.087035 Z" id="Fill-78" fill="#4B4A4B" mask="url(#mask-4)"></path>
                        <polygon id="Fill-79" fill="#4B4A4B" mask="url(#mask-4)" points="267.995121 60.9007395 267.995121 53.8638984 269.363055 53.8638984 269.363055 59.7011864 272.950162 59.7011864 272.950162 60.9007395"></polygon>
                        <polygon id="Fill-80" fill="#4B4A4B" mask="url(#mask-4)" points="275.150689 53.8636506 276.884768 57.2535033 278.648584 53.8636506 280.125555 53.8636506 277.568115 58.4425231 277.568115 60.9004916 276.210713 60.9004916 276.210713 58.4226958 273.664424 53.8636506"></polygon>
                        <path d="M296.498627,2.21118029 L295.765098,2.95532453 C295.291773,2.4367161 294.637544,1.89518233 293.791879,1.30841747 L294.547711,0.575426105 C295.314076,1.11695988 295.968925,1.66964652 296.498627,2.21118029 L296.498627,2.21118029 Z M296.204968,4.88415135 L295.437983,5.64006805 C294.964039,5.10968715 294.31043,4.53469477 293.453613,3.90269883 L294.209445,3.16970747 C294.998113,3.73416658 295.663494,4.30915896 296.204968,4.88415135 L296.204968,4.88415135 Z M298.990397,7.01558862 L297.930992,7.18536008 L297.930992,10.3317085 L296.847426,10.3317085 L296.847426,7.3656648 L293.453613,7.90719858 L293.295631,6.86936211 L296.847426,6.29375013 L296.847426,0.000433722702 L297.930992,0.000433722702 L297.930992,6.12459827 L298.821884,5.97837176 L298.990397,7.01558862 Z M290.543656,2.91009345 L290.543656,1.50049467 C290.036257,1.56803149 289.517087,1.63556831 288.999156,1.68079939 L288.795329,0.676421534 C290.250616,0.564273235 291.547303,0.33873743 292.69778,0.000433722702 L293.07012,1.00419198 C292.607947,1.12811275 292.122851,1.24088065 291.626604,1.33134281 L291.626604,2.91009345 L293.07012,2.91009345 L293.07012,3.93677704 L291.626604,3.93677704 L291.626604,4.37669578 C292.224455,4.82776739 292.832838,5.34637583 293.453613,5.93314068 L292.855761,6.84643677 C292.370665,6.24851905 291.96487,5.76336922 291.626604,5.40275978 L291.626604,10.3317085 L290.543656,10.3317085 L290.543656,5.4702966 C290.126709,6.46290198 289.585236,7.37619807 288.908084,8.18849873 L288.434759,6.99328288 C289.336802,6.09052006 290.002802,5.07560894 290.41913,3.93677704 L288.784177,3.93677704 L288.784177,2.91009345 L290.543656,2.91009345 Z" id="Fill-81" fill="#ED1C24" mask="url(#mask-4)"></path>
                        <path d="M294.918317,14.7693113 L294.410918,17.4986663 L296.395908,17.4986663 L296.892156,14.0703982 L293.080157,14.0697786 L293.080157,13.0548674 L298.087239,13.0548674 L297.444162,17.4986663 L298.628713,17.4986663 C298.628713,20.273872 298.470731,21.8749284 298.16592,22.3148471 C297.849957,22.7324601 297.162273,22.9468431 296.124552,22.9468431 C295.809209,22.9468431 295.482094,22.9245373 295.132676,22.8904591 L294.839017,21.8526227 C295.335884,21.9207791 295.685302,21.9542377 295.88789,21.9542377 C296.711871,21.9542377 297.196348,21.7850858 297.354329,21.4467821 C297.523462,21.1078588 297.613914,20.1270259 297.613914,18.4912717 L293.24929,18.4912717 L293.902899,14.7129274 L294.918317,14.7693113 Z M296.970837,19.6641818 L296.970837,20.6567872 L292.95563,20.6567872 L292.95563,19.6641818 L296.970837,19.6641818 Z M290.09152,16.7315967 L290.09152,14.3405455 L288.670306,14.3405455 L288.670306,13.3138619 L292.696665,13.3138619 L292.696665,14.3405455 L291.162696,14.3405455 L291.162696,16.7315967 L292.403005,16.7315967 L292.403005,17.7694332 L291.162696,17.7694332 L291.162696,20.1381788 C291.681247,20.0024855 292.177494,19.8444865 292.673742,19.6871072 L292.673742,20.724324 C291.48981,21.1078588 290.226578,21.4238568 288.873514,21.6716983 L288.613929,20.6456343 C289.110176,20.5780975 289.606424,20.4876353 290.09152,20.3971732 L290.09152,17.7694332 L288.862362,17.7694332 L288.862362,16.7315967 L290.09152,16.7315967 Z" id="Fill-82" fill="#ED1C24" mask="url(#mask-4)"></path>
                        <path d="M295.244379,33.6439319 L294.398094,34.2418497 C294.08275,33.7114688 293.642881,33.1253235 293.101407,32.4933276 L293.935921,31.9747191 C294.499697,32.6067151 294.939567,33.1705546 295.244379,33.6439319 L295.244379,33.6439319 Z M296.541065,30.6103514 L296.541065,29.9672026 L297.578787,29.9672026 L297.578787,30.6103514 L298.85317,30.6103514 L298.85317,31.6252626 L297.578787,31.6252626 L297.578787,34.5913062 C297.578787,35.3131447 297.206446,35.6743738 296.462384,35.6743738 L295.1087,35.6743738 L294.894961,34.6594627 C295.311288,34.7040741 295.717703,34.7381524 296.101196,34.7381524 C296.394236,34.7381524 296.541065,34.6024591 296.541065,34.3434647 L296.541065,31.6252626 L292.898199,31.624643 L292.898199,30.6097318 L296.541065,30.6103514 Z M296.237493,25.3313266 L296.237493,26.4590056 L298.85379,26.4590056 L298.85379,27.451611 L296.237493,27.451611 L296.237493,28.5346785 L298.504372,28.5346785 L298.503752,29.5384368 L293.067332,29.5384368 L293.067952,28.5340589 L295.199772,28.5346785 L295.199772,27.451611 L292.616931,27.451611 L292.616931,26.4590056 L295.199772,26.4590056 L295.199772,25.3313266 L296.237493,25.3313266 Z M289.436238,30.2261971 L288.499501,29.966583 C288.838386,28.7936729 289.031062,27.5414535 289.075668,26.2334698 L290.045241,26.3121595 C290.022937,26.7520782 290.000634,27.1808441 289.955408,27.60961 L290.63256,27.60961 L290.63256,25.3536323 L291.65851,25.3536323 L291.65851,27.60961 L292.560553,27.60961 L292.560553,28.6474464 L291.65851,28.6474464 L291.65789,31.0496506 C291.984385,30.9139573 292.300348,30.7900366 292.605159,30.6549629 L292.605159,31.669874 C292.289196,31.8055673 291.973853,31.9406409 291.65789,32.0534088 L291.65789,35.7530635 L290.63194,35.7530635 L290.63194,32.4257908 C290.034089,32.6172483 289.424466,32.7975531 288.804312,32.9667049 L288.545346,31.9294881 C289.244182,31.7937948 289.943017,31.624643 290.63194,31.4220325 L290.63256,28.6474464 L289.809198,28.6474464 C289.706974,29.1883606 289.582448,29.706969 289.436238,30.2261971 L289.436238,30.2261971 Z" id="Fill-83" fill="#ED1C24" mask="url(#mask-4)"></path>
                        <path d="M296.890669,39.998837 L294.443506,39.998837 C294.409431,40.0440681 294.375357,40.100452 294.353054,40.1456831 C294.680168,40.6419858 295.097115,41.0930574 295.605134,41.5100508 C296.134836,41.0366734 296.563555,40.5403707 296.890669,39.998837 L296.890669,39.998837 Z M294.172769,47.0034586 L296.958198,47.0034586 L296.958198,45.0969375 L294.172769,45.0969375 L294.172769,47.0034586 Z M291.161829,48.4019045 L290.112956,48.4019045 L290.112956,43.1904165 C289.785222,44.1266379 289.379426,44.9841696 288.905482,45.7623921 L288.443309,44.6006348 C289.18799,43.6080295 289.740615,42.468578 290.090033,41.1828999 L288.702894,41.1828999 L288.702894,40.1562164 L290.112956,40.1562164 L290.112956,38.0477044 L291.161829,38.0477044 L291.161829,40.1562164 L292.300534,40.1562164 L292.300534,41.1828999 L291.161829,41.1828999 L291.161829,41.6903555 C291.612231,42.1866582 292.0521,42.7170391 292.503741,43.3031844 C293.405784,42.9425749 294.195072,42.5367344 294.871604,42.0856628 C294.465809,41.702128 294.115772,41.3074403 293.823351,40.8898273 C293.574918,41.1946724 293.304181,41.4765922 293.033444,41.7467395 L292.357531,40.9232859 C293.123896,40.2243728 293.778125,39.2658456 294.319599,38.0247791 L295.345549,38.2620874 C295.232793,38.5099289 295.13119,38.75839 295.019054,38.9839259 L298.074601,38.9839259 L298.074601,39.8073794 C297.691728,40.6642915 297.150254,41.4313611 296.439028,42.1079685 C297.172557,42.5819655 298.029994,42.9766531 298.999566,43.3149568 L298.51447,44.329868 C297.398068,43.8564906 296.450799,43.3378822 295.672663,42.7511173 C294.973208,43.2697257 294.149846,43.7207974 293.2255,44.1043321 L297.99592,44.1043321 L297.99592,48.4242103 L296.958198,48.4242103 L296.958198,47.996064 L294.172769,47.996064 L294.172769,48.4242103 L293.123896,48.4242103 L293.123896,44.1495632 C292.943611,44.2171001 292.763327,44.2846369 292.593574,44.3521737 L292.26646,43.9234078 L292.007494,44.3187151 C291.680379,43.7548756 291.398491,43.2920315 291.161829,42.9196496 L291.161829,48.4019045 Z" id="Fill-84" fill="#ED1C24" mask="url(#mask-4)"></path>
                    </g>
                </g>
            </g>
        </g>
    </g>
</svg>